<svg width="606" height="402" viewBox="0 0 606 402" fill="none" xmlns="http://www.w3.org/2000/svg">
<path d="M0.0572103 38.5816C33.8664 34.684 98.4014 47.0568 86.0684 127.729C70.6522 228.57 76.8488 231.139 219.267 239.1C361.685 247.061 377.036 308.129 369.564 351.265C362.092 394.4 249.092 398.391 254.03 305.31C258.968 212.229 464.688 165.582 565.768 311.808" stroke="url(#paint0_linear_217_91)"/>
<path d="M563.914 319.899C563.515 319.789 563.129 319.651 562.757 319.487L547.637 340.608L545.197 338.861L560.27 317.81C559.947 317.496 559.648 317.158 559.378 316.798L535.428 328.418L534.118 325.719L558.034 314.115C557.82 313.39 557.7 312.628 557.688 311.844L530.754 308.976L531.071 305.992L558.171 308.877C558.334 308.416 558.536 307.975 558.771 307.555L536.257 291.884L537.971 289.421L560.686 305.232C561.033 304.938 561.402 304.67 561.792 304.433L549.324 279.194L552.014 277.866L564.607 303.358C564.891 303.304 565.179 303.265 565.471 303.24L568.09 275.228L571.077 275.507L568.458 303.52C569.017 303.674 569.55 303.883 570.054 304.141L587.107 280.316L589.547 282.063L572.445 305.958C572.687 306.222 572.911 306.502 573.119 306.794L598.894 294.285L600.203 296.984L574.398 309.509C574.496 309.874 574.568 310.248 574.617 310.63L602.667 313.613L602.35 316.597L574.465 313.63C574.387 313.969 574.291 314.3 574.174 314.621L597.066 330.554L595.351 333.017L572.656 317.22C572.409 317.51 572.143 317.783 571.86 318.037L583.904 342.418L581.214 343.747L569.295 319.621C568.54 319.918 567.735 320.109 566.901 320.179L564.375 347.194L561.388 346.915L563.914 319.899Z" fill="#83A17D"/>
<defs>
<linearGradient id="paint0_linear_217_91" x1="676.96" y1="409.716" x2="63.3694" y2="83.2375" gradientUnits="userSpaceOnUse">
<stop/>
<stop offset="0.553176" stop-color="white"/>
<stop offset="1" stop-opacity="0"/>
</linearGradient>
</defs>
</svg>
