<svg width="588" height="363" viewBox="0 0 588 363" fill="none" xmlns="http://www.w3.org/2000/svg">
<path d="M587.391 361.585C553.391 363.085 489.891 346.185 507.891 266.585C530.391 167.085 524.391 164.085 382.891 146.085C241.391 128.085 210.891 66.0695 240.891 23.5854C266.143 -12.1751 364.391 -14.9146 352.891 77.5854C341.391 170.085 132.891 202.086 42.3906 49.0855" stroke="url(#paint0_linear_217_79)"/>
<path d="M44.811 41.1457C45.2011 41.2838 45.5761 41.449 45.9351 41.6385L62.5097 21.6386L64.8201 23.553L48.2979 43.4873C48.5984 43.8235 48.8736 44.1813 49.1172 44.5602L73.8267 34.6598L74.9428 37.4447L50.2674 47.3309C50.4298 48.0691 50.4959 48.8374 50.452 49.6203L77.1161 54.3838L76.5889 57.3374L49.7614 52.5448C49.5664 52.9941 49.3334 53.4202 49.0691 53.822L70.4189 71.0445L68.536 73.3799L46.9948 56.004C46.6278 56.2734 46.2406 56.5148 45.8346 56.7227L56.4893 82.7784L53.7122 83.9137L42.9502 57.5968C42.6635 57.6301 42.3737 57.6483 42.0809 57.652L37.4897 85.4106L34.5299 84.921L39.1211 57.1624C38.5747 56.969 38.0572 56.7236 37.5732 56.4313L18.8795 78.9918L16.5691 77.0774L35.3165 54.4496C35.0936 54.1694 34.8902 53.8743 34.7041 53.5683L8.10852 64.2258L6.99234 61.4409L33.6189 50.7697C33.547 50.3984 33.5011 50.0198 33.4797 49.6361L5.71054 44.6779L6.23749 41.7253L33.8432 46.6545C33.9452 46.3216 34.0642 45.9977 34.2034 45.6856L12.4943 28.176L14.3781 25.8408L35.9002 43.2007C36.1678 42.9285 36.4526 42.6744 36.7534 42.441L26.461 17.2708L29.2381 16.1355L39.4234 41.0436C40.1976 40.8002 41.0136 40.6665 41.8512 40.6562L46.2789 13.8861L49.2387 14.3757L44.811 41.1457Z" fill="#83A17D"/>
<defs>
<linearGradient id="paint0_linear_217_79" x1="-61.6093" y1="-56.4307" x2="527.391" y2="312.569" gradientUnits="userSpaceOnUse">
<stop/>
<stop offset="0.553176" stop-color="white"/>
<stop offset="1" stop-opacity="0"/>
</linearGradient>
</defs>
</svg>
