<svg width="83" height="83" viewBox="0 0 83 83" fill="none" xmlns="http://www.w3.org/2000/svg">
<path fill-rule="evenodd" clip-rule="evenodd" d="M46.2798 5.71129L49.2395 6.20083L44.8122 32.9689C45.2029 33.1071 45.579 33.2725 45.9385 33.4624L62.5107 13.4637L64.8207 15.3779L48.3018 35.3123C48.602 35.6483 48.8752 36.0075 49.1186 36.3862L73.8274 26.4851L74.9433 29.2699L50.2711 39.1563C50.4336 39.8948 50.4987 40.664 50.4547 41.4472L77.1173 46.2092L76.5898 49.1624L49.7632 44.3712C49.5681 44.8206 49.3362 45.2478 49.0717 45.6498L70.42 62.8695L68.5365 65.2046L46.9978 47.8312C46.6306 48.1008 46.2421 48.3409 45.8359 48.549L56.49 74.6039L53.7132 75.7394L42.9529 49.4248C42.6655 49.4582 42.3746 49.4771 42.0812 49.4807L37.4906 77.2358L34.5308 76.7462L39.1214 48.9911C38.5749 48.7978 38.0572 48.5514 37.5732 48.2591L18.8804 70.817L16.5704 68.9028L35.3193 46.2773C35.0955 45.9964 34.8896 45.7015 34.7029 45.3946L8.10935 56.0509L6.99347 53.2661L33.6196 42.5968C33.5476 42.2254 33.5001 41.8467 33.4787 41.4628L5.7114 36.5035L6.23885 33.5503L33.8417 38.4801C33.9436 38.1472 34.065 37.824 34.2042 37.5118L12.4951 20.0011L14.3786 17.666L35.9001 35.0254C36.1678 34.7531 36.4533 34.4994 36.7542 34.2659L26.4619 9.09581L29.2387 7.96034L39.4235 32.8675C40.1978 32.6241 41.0145 32.4896 41.8524 32.4793L46.2798 5.71129Z" fill="#83A17D"/>
</svg>
