<svg width="147" height="27" viewBox="0 0 147 27" fill="none" xmlns="http://www.w3.org/2000/svg">
<path d="M34.4949 20.618V6.15801H37.9749L41.7649 17.208L45.5949 6.15801H49.0549V20.618H46.5849V9.27801L42.7749 20.618H40.7449L36.9649 9.34801V20.618H34.4949Z" fill="black"/>
<path d="M58.3213 20.818C56.988 20.818 55.8347 20.5247 54.8613 19.938C53.8947 19.3513 53.1447 18.5047 52.6113 17.398C52.0847 16.2913 51.8213 14.9647 51.8213 13.418C51.8213 11.858 52.088 10.5213 52.6213 9.40801C53.1547 8.29467 53.908 7.44134 54.8813 6.84801C55.8613 6.25467 57.008 5.95801 58.3213 5.95801C59.6347 5.95801 60.7713 6.25467 61.7313 6.84801C62.698 7.44134 63.4447 8.29467 63.9713 9.40801C64.498 10.5213 64.7613 11.858 64.7613 13.418C64.7613 14.9647 64.5013 16.2913 63.9813 17.398C63.4613 18.498 62.718 19.3447 61.7513 19.938C60.7847 20.5247 59.6413 20.818 58.3213 20.818ZM58.3213 18.778C59.108 18.778 59.7847 18.5947 60.3513 18.228C60.918 17.8547 61.3513 17.278 61.6513 16.498C61.958 15.7113 62.1113 14.6947 62.1113 13.448C62.1113 12.1813 61.958 11.148 61.6513 10.348C61.3447 9.54134 60.908 8.94801 60.3413 8.56801C59.7747 8.18801 59.1013 7.99801 58.3213 7.99801C57.5347 7.99801 56.8547 8.19134 56.2813 8.57801C55.7147 8.95801 55.2747 9.55134 54.9613 10.358C54.648 11.158 54.4913 12.188 54.4913 13.448C54.4913 14.6947 54.648 15.7113 54.9613 16.498C55.2747 17.278 55.7147 17.8547 56.2813 18.228C56.8547 18.5947 57.5347 18.778 58.3213 18.778Z" fill="black"/>
<path d="M67.5223 6.15801C67.5823 6.15801 67.7589 6.15801 68.0523 6.15801C68.3456 6.15801 68.6923 6.15801 69.0923 6.15801C69.4989 6.15801 69.9089 6.16134 70.3223 6.16801C70.7423 6.16801 71.1056 6.17134 71.4123 6.17801C73.1723 6.21134 74.6023 6.51468 75.7023 7.08801C76.8089 7.65468 77.6189 8.46468 78.1323 9.51801C78.6523 10.5647 78.9123 11.828 78.9123 13.308C78.9123 14.8547 78.6356 16.1713 78.0823 17.258C77.5356 18.3447 76.6956 19.178 75.5623 19.758C74.4356 20.3313 73.0023 20.618 71.2623 20.618H67.5223V6.15801ZM69.9923 8.16801V18.608H71.3023C72.2956 18.608 73.1723 18.438 73.9323 18.098C74.6923 17.7513 75.2856 17.1913 75.7123 16.418C76.1456 15.6447 76.3623 14.6113 76.3623 13.318C76.3623 12.0647 76.1623 11.0613 75.7623 10.308C75.3623 9.55467 74.7889 9.01134 74.0423 8.67801C73.2956 8.33801 72.4023 8.16801 71.3623 8.16801H69.9923Z" fill="black"/>
<path d="M92.8024 15.338C92.8024 16.4847 92.6158 17.468 92.2424 18.288C91.8691 19.1013 91.2724 19.728 90.4524 20.168C89.6391 20.6013 88.5658 20.818 87.2324 20.818C85.8991 20.818 84.8224 20.598 84.0024 20.158C83.1891 19.7113 82.5991 19.0713 82.2324 18.238C81.8658 17.398 81.6824 16.3847 81.6824 15.198V6.15801H84.1724V15.448C84.1724 16.568 84.4458 17.3947 84.9924 17.928C85.5458 18.4613 86.2924 18.728 87.2324 18.728C87.8658 18.728 88.4158 18.6113 88.8824 18.378C89.3491 18.1447 89.7091 17.788 89.9624 17.308C90.2158 16.8213 90.3424 16.2013 90.3424 15.448V6.15801H92.8024V15.338Z" fill="black"/>
<path d="M95.9698 6.15801H98.4298V18.518H104.96V20.618H95.9598L95.9698 6.15801Z" fill="black"/>
<path d="M106.726 20.618L111.926 6.15801H114.556L119.746 20.618H117.306L116.016 16.988H110.496L109.176 20.618H106.726ZM111.056 14.828H115.416L113.246 8.52801L111.056 14.828Z" fill="black"/>
<path d="M132.991 20.618H130.451L127.961 14.748H124.601V20.618H122.171V6.15801H128.041C129.147 6.15801 130.057 6.33134 130.771 6.67801C131.491 7.01801 132.024 7.50134 132.371 8.12801C132.717 8.74801 132.891 9.47467 132.891 10.308C132.891 11.0813 132.764 11.7313 132.511 12.258C132.257 12.778 131.927 13.2047 131.521 13.538C131.121 13.8647 130.691 14.1313 130.231 14.338L132.991 20.618ZM127.491 12.818C128.411 12.818 129.127 12.6047 129.641 12.178C130.161 11.7513 130.421 11.158 130.421 10.398C130.421 9.65134 130.181 9.07467 129.701 8.66801C129.221 8.26134 128.587 8.05801 127.801 8.05801H124.601V12.818H127.491Z" fill="black"/>
<path d="M140.75 20.818C140.05 20.818 139.366 20.7313 138.7 20.558C138.033 20.378 137.426 20.1147 136.88 19.768C136.34 19.4147 135.89 18.978 135.53 18.458C135.17 17.9313 134.95 17.318 134.87 16.618H137.39C137.496 17.1047 137.706 17.5147 138.02 17.848C138.333 18.1813 138.723 18.4347 139.19 18.608C139.663 18.7813 140.18 18.868 140.74 18.868C141.34 18.868 141.88 18.788 142.36 18.628C142.846 18.468 143.23 18.2347 143.51 17.928C143.796 17.6213 143.94 17.2447 143.94 16.798C143.94 16.4047 143.836 16.0713 143.63 15.798C143.423 15.5247 143.133 15.3013 142.76 15.128C142.393 14.948 141.963 14.8047 141.47 14.698L138.81 14.118C137.736 13.898 136.886 13.4713 136.26 12.838C135.633 12.2047 135.313 11.3613 135.3 10.308C135.293 9.43467 135.523 8.67467 135.99 8.02801C136.463 7.37467 137.106 6.87134 137.92 6.51801C138.733 6.15801 139.653 5.97801 140.68 5.97801C141.88 5.97801 142.89 6.17467 143.71 6.56801C144.536 6.95467 145.16 7.47467 145.58 8.12801C146.006 8.78134 146.223 9.49801 146.23 10.278H143.77C143.71 9.70468 143.536 9.24801 143.25 8.90801C142.97 8.56801 142.61 8.32468 142.17 8.17801C141.73 8.03134 141.243 7.95801 140.71 7.95801C140.31 7.95801 139.936 8.00467 139.59 8.09801C139.243 8.19134 138.94 8.32801 138.68 8.50801C138.42 8.68801 138.216 8.90801 138.07 9.16801C137.93 9.42134 137.86 9.71134 137.86 10.038C137.86 10.5047 138.013 10.8847 138.32 11.178C138.633 11.4647 139.216 11.708 140.07 11.908L142.67 12.488C143.476 12.648 144.126 12.888 144.62 13.208C145.113 13.528 145.49 13.8947 145.75 14.308C146.01 14.7147 146.183 15.1313 146.27 15.558C146.356 15.9847 146.4 16.3913 146.4 16.778C146.4 17.5313 146.166 18.2147 145.7 18.828C145.24 19.4413 144.586 19.928 143.74 20.288C142.9 20.6413 141.903 20.818 140.75 20.818Z" fill="black"/>
<path d="M22.618 13.1182C22.618 15.2741 21.8846 17.366 20.5384 19.05C19.1923 20.734 17.3133 21.9101 15.2103 22.3849L13.118 13.1182H22.618Z" fill="#143C3C"/>
<path d="M10.3563 4.02812C12.4192 3.40139 14.6339 3.49497 16.6365 4.29348C18.6392 5.09199 20.3106 6.54794 21.3763 8.42212L13.118 13.1179L10.3563 4.02812Z" fill="#143C3C"/>
<path d="M8.01001 21.128C6.19219 19.9688 4.82273 18.2258 4.12663 16.1853C3.43053 14.1448 3.44919 11.9282 4.17956 9.89973L13.1178 13.118L8.01001 21.128Z" fill="#143C3C"/>
<circle cx="13.118" cy="13.1182" r="2.5" fill="#83A17D"/>
</svg>
