<svg width="76" height="76" viewBox="0 0 76 76" fill="none" xmlns="http://www.w3.org/2000/svg">
<path fill-rule="evenodd" clip-rule="evenodd" d="M40.7678 73.7412L37.772 73.8989L36.345 46.8045C35.9338 46.7535 35.5312 46.6728 35.1394 46.5646L23.2507 69.6568L20.5835 68.2836L32.4338 45.2658C32.0683 45.0021 31.7243 44.7099 31.4051 44.3923L9.40023 59.3708L7.71214 56.8908L29.6843 41.9346C29.367 41.2482 29.1381 40.511 29.0128 39.7366L1.95003 40.8141L1.83069 37.8165L29.0599 36.7324C29.1538 36.2515 29.2886 35.7844 29.4606 35.335L4.91129 23.104L6.24911 20.4188L31.0173 32.7589C31.318 32.4168 31.6459 32.0987 31.9979 31.8082L15.9948 8.65065L18.4628 6.94512L34.6254 30.3334C34.8989 30.239 35.1789 30.1582 35.4648 30.0916L33.9852 1.9986L36.981 1.84081L38.4606 29.9338C39.036 30.0053 39.5947 30.1347 40.1303 30.3163L53.5403 4.26917L56.2075 5.64237L42.7574 31.7676C43.0361 31.9939 43.3005 32.2376 43.5487 32.4971L67.2317 16.3764L68.9198 18.8563L45.2078 34.9969C45.3579 35.3442 45.4856 35.7039 45.5891 36.0742L73.7737 34.952L73.893 37.9497L45.8753 39.0652C45.8472 39.4123 45.7981 39.7539 45.7292 40.0887L70.6936 52.5266L69.3558 55.2117L44.6071 42.8814C44.4042 43.2049 44.1799 43.514 43.9362 43.8067L59.3958 66.1777L56.9277 67.8832L41.6296 45.7459C40.9257 46.15 40.1569 46.4567 39.3408 46.6468L40.7678 73.7412Z" fill="#83A17D"/>
</svg>
